<?xml version="1.0" encoding="UTF-8"?>
<svg width="25px" height="76px" viewBox="0 0 25 76" version="1.1" xmlns="http://www.w3.org/2000/svg" xmlns:xlink="http://www.w3.org/1999/xlink">
    <!-- Generator: Sketch 53.2 (72643) - https://sketchapp.com -->
    <title>Group 3 Copy 10</title>
    <desc>Created with Sketch.</desc>
    <g id="Page-1" stroke="none" stroke-width="1" fill="none" fill-rule="evenodd">
        <g id="Desktop" transform="translate(-758.000000, -934.000000)" fill="#FF0600">
            <g id="Group-3-Copy-10" transform="translate(758.000000, 934.158965)">
                <path d="M12.5006165,0.633974596 L12.5006165,23.8599527 L12.5006165,0.633974596 C10.9531443,1.19158192 9.39827374,2.35275988 7.93711467,3.78125067 C2.7188656,8.87833804 -2.27373675e-13,15.9433801 -2.27373675e-13,23.1680842 L-2.27373675e-13,63.3061354 C0.252774353,71.4803443 7.76942047,75.6339746 7.76942047,75.6339746 L8.52651048,75.6339746 L16.4734895,75.6339746 L17.2305795,75.6339746 C17.2305795,75.6339746 24.7484587,71.4803443 25,63.3061354 L25,23.1680842 C25,15.9433801 22.2823674,8.87833804 17.0628853,3.78125067 C15.6017263,2.35275988 14.0468557,1.19158192 12.5006165,0.633974596" id="Fill-1"></path>
            </g>
        </g>
    </g>
</svg>